<?xml version="1.0" standalone="no"?>
<!DOCTYPE svg PUBLIC "-//W3C//DTD SVG 20010904//EN"
 "http://www.w3.org/TR/2001/REC-SVG-20010904/DTD/svg10.dtd">
<svg version="1.0" xmlns="http://www.w3.org/2000/svg"
 width="200.000000pt" height="200.000000pt" viewBox="0 0 200.000000 200.000000"
 preserveAspectRatio="xMidYMid meet">

<g transform="translate(0.000000,200.000000) scale(0.100000,-0.100000)"
fill="#000000" stroke="none">
<path d="M1115 1616 c-27 -13 -58 -32 -67 -42 -18 -21 -458 -803 -458 -815 0
-4 23 -1 52 7 29 7 53 12 55 11 1 -2 -45 -88 -103 -191 -57 -104 -103 -190
-101 -192 2 -2 46 10 98 28 l94 33 34 121 34 121 101 6 c304 18 503 166 548
405 15 79 1 129 -53 187 -51 56 -112 80 -178 72 -56 -7 -61 -1 -61 65 0 52 24
91 73 118 28 16 48 21 75 17 26 -5 39 -2 48 11 20 25 18 28 -26 46 -56 22
-106 20 -165 -8z m156 -484 c-16 -53 -52 -113 -94 -154 -41 -40 -186 -119
-216 -117 -9 0 7 9 34 19 103 40 205 141 227 226 10 38 20 48 50 53 4 0 3 -12
-1 -27z"/>
<path d="M1312 1491 c-20 -12 -10 -46 13 -46 14 0 20 7 20 24 0 27 -13 35 -33
22z"/>
<path d="M1398 1427 c-46 -69 -47 -67 38 -67 l77 0 -24 26 c-13 14 -36 34 -50
45 -27 19 -27 19 -41 -4z"/>
</g>
</svg>
